<svg xmlns="http://www.w3.org/2000/svg" width="20" height="20" viewBox="0 0 20 20">
  <rect x="0" y="0" width="20" height="20" fill="#FEE101"/>
  <path d="M10,16c-3.308,0-6-2.692-6-6c0-3.308,2.692-6,6-6c3.308,0,6,2.692,6,6C16,13.308,13.308,16,10,16z" fill="#FFFFFF"/>
  <path d="M7.25,10.625c0,0.276-0.224,0.5-0.5,0.5H6.5v1.25c0,0.276-0.224,0.5-0.5,0.5h-1.25c-0.276,0-0.5-0.224-0.5-0.5V11.125
    H3.25c-0.276,0-0.5-0.224-0.5-0.5v-1.25c0-0.276,0.224-0.5,0.5-0.5h1.25v-1.25C4.75,7.099,4.974,6.875,5.25,6.875h1.25
    c0.276,0,0.5,0.224,0.5,0.5V7.5h1.25c0.276,0,0.5,0.224,0.5,0.5v1.25c0,0.276-0.224,0.5-0.5,0.5H7.75V10.625z" fill="#FFAC33"/>
  <path d="M10,12.875c-1.035,0-2.075-0.225-3-0.625v-0.625H13v0.625C12.075,12.65,11.035,12.875,10,12.875z" fill="#FF5B14"/>
  <path d="M8.65,6.587l-0.5,0.5L7.35,6.087l0.5-0.5L8.65,6.587z" fill="#000000"/>
  <path d="M10,7.875c-1.085,0-2.136-0.263-3.05-0.763l0.4-0.9c0.842,0.372,1.767,0.573,2.7,0.573s1.858-0.201,2.7-0.573l0.4,0.9
    C12.136,7.613,11.085,7.875,10,7.875z" fill="#000000"/>
  <path d="M12.35,6.087l-0.5,0.5l-0.8-0.8l0.5-0.5L12.35,6.087z" fill="#000000"/>
</svg>